<svg width="647" height="582" viewBox="0 0 647 582" fill="none" xmlns="http://www.w3.org/2000/svg">
<path d="M337.108 205.786C337.108 205.786 339.645 205.975 340.596 205.343C341.548 204.708 344.593 202.612 346.306 201.472C348.02 200.328 349.668 200.393 350.557 200.902C351.447 201.41 351.828 202.296 351.828 202.296C351.828 202.296 352.59 201.345 353.603 201.345C354.616 201.345 359.694 202.228 360.329 203.183C360.965 204.137 360.329 206.738 360.329 206.738C360.329 206.738 361.789 206.992 362.105 208.197C362.421 209.403 361.535 211.433 361.535 211.433C361.535 211.433 362.867 211.622 363.248 212.384C363.629 213.147 363.629 215.493 362.359 216.699C362.359 216.699 363.502 217.904 363.121 219.175C362.74 220.446 359.059 223.554 358.3 224.379C357.538 225.203 356.587 225.457 355.508 225.395C354.43 225.333 348.023 225.457 344.85 224.317C341.678 223.173 332.29 220.7 331.209 219.683C330.131 218.667 334.635 206.483 337.108 205.786Z" fill="#0A071E"/>
<path d="M362.359 216.702C362.359 216.702 363.502 217.907 363.121 219.178C362.896 219.921 361.541 221.299 360.3 222.479C361.079 221.156 361.847 219.853 362.043 219.527C362.469 218.813 362.092 217.767 361.424 217.575C360.756 217.386 355.525 216.529 354.619 216.529C353.714 216.529 350.052 218.575 350.052 218.575C350.052 218.575 353.336 216.004 354.287 215.767C355.238 215.529 360.948 216.575 360.948 216.575C360.948 216.575 361.567 216.288 362.186 215.385C362.805 214.48 362.711 212.863 362.186 212.433C361.662 212.006 356.619 211.576 354.811 211.56C353.004 211.544 352.336 211.56 352.336 211.56C352.336 211.56 353.241 210.814 353.906 210.719C354.57 210.625 360.899 211.146 360.899 211.146C361.137 210.765 361.469 208.481 360.899 207.911C360.329 207.34 355.238 206.483 354.714 206.483C354.189 206.483 352.007 207.578 352.007 207.578C352.062 209.018 352.199 210.96 352.336 211.56C352.495 212.257 351.922 213.971 350.147 213.655C350.147 213.655 351.541 213.339 351.512 211.56C351.479 209.784 351.004 205.467 351.036 204.007C351.069 202.547 350.245 201.658 349.388 201.563C348.531 201.469 342.202 206.34 340.538 206.672C339.499 206.881 337.417 206.773 336 206.663C336.394 206.197 336.772 205.88 337.111 205.783C337.111 205.783 339.649 205.972 340.6 205.34C341.551 204.704 344.596 202.609 346.31 201.469C348.023 200.325 349.671 200.39 350.561 200.898C351.45 201.407 351.831 202.293 351.831 202.293C351.831 202.293 351.958 205.499 351.991 206.926C351.994 207.125 352.004 207.344 352.01 207.578C352.01 207.578 353.147 206.245 353.958 205.864C354.766 205.483 359.717 206.389 359.717 206.389C359.717 206.389 360.049 204.105 359.717 203.58C359.385 203.055 355.958 202.436 354.626 202.296C353.294 202.153 351.834 202.296 351.834 202.296C351.834 202.296 352.596 201.345 353.61 201.345C354.623 201.345 359.701 202.228 360.336 203.183C360.971 204.137 360.336 206.737 360.336 206.737C360.336 206.737 361.795 206.992 362.111 208.197C362.427 209.403 361.541 211.433 361.541 211.433C361.541 211.433 362.873 211.622 363.255 212.384C363.636 213.147 363.636 215.493 362.365 216.698L362.359 216.702Z" fill="#FFF29C"/>
<path d="M284.779 193.707C284.779 193.707 291.251 206.972 297.306 210.625C303.362 214.277 331.499 221.13 331.499 221.13C331.499 221.13 336.88 218.246 337.938 213.535C338.997 208.823 338.323 204.114 338.323 204.114C338.323 204.114 328.424 201.325 323.714 199.5C319.004 197.676 312.007 193.727 309.355 192.765C309.355 192.765 304.974 182.869 301.417 179.696C297.86 176.522 284.3 188.568 284.779 193.707Z" fill="#AAAAAA"/>
<path d="M337.938 213.535C338.997 208.823 338.323 204.114 338.323 204.114C338.323 204.114 328.424 201.325 323.714 199.5C319.003 197.673 312.007 193.727 309.355 192.765C309.355 192.765 304.974 182.869 301.417 179.696C300.538 178.91 299.046 179.269 297.306 180.328C299.928 183.599 305.492 190.654 307.088 194.258C307.088 194.258 322.593 201.1 327.463 202.769C332.333 204.434 337.649 205.718 337.649 205.718C337.649 205.718 338.32 210.592 337.622 214.574C337.749 214.238 337.857 213.893 337.935 213.535H337.938Z" fill="#FFF29C"/>
<path d="M289.117 219.784C289.117 219.784 290.176 226.585 296.71 232.352C303.244 238.119 323.043 241.518 328.232 242.991C333.42 244.464 352.258 249.514 359.561 253.336C359.561 253.336 364.079 254.675 365.424 257.07C366.769 259.465 367.922 264.809 367.251 269.202C366.577 273.597 366.385 275.904 366.385 275.904C366.385 275.904 368.02 287.054 367.922 291.958C367.828 296.862 367.925 298.208 367.925 298.208C367.925 298.208 344.28 302.343 335.534 298.208C335.534 298.208 335.824 287.058 336.88 282.731C336.88 282.731 335.534 283.213 334.766 282.538C333.997 281.864 334.284 280.134 334.284 280.134C334.284 280.134 331.495 281.287 330.632 280.808C329.766 280.326 318.717 281.675 312.854 281.29C306.99 280.906 283.541 277.445 283.541 277.445C283.541 277.445 277.678 279.658 274.987 280.329C274.987 280.329 269.573 286.035 267.746 289.013C267.746 289.013 263.003 308.625 260.059 315.804C257.111 322.982 252.739 333.748 252.739 333.748V336.824C252.739 338.235 251.075 339.388 251.075 339.388C251.075 339.388 250.703 346.439 249.55 351.949C248.397 357.463 246.023 367.573 246.023 367.573C246.023 367.573 223.925 370.151 215.85 363.103C215.85 363.103 218.156 344.259 219.309 337.339C219.309 337.339 218.798 334.135 219.436 332.852C220.075 331.568 221.039 330.225 221.039 330.225C221.039 330.225 220.335 319.779 220.974 314.907C221.615 310.036 228.853 276.005 228.853 276.005L229.528 273.121C229.528 273.121 237.068 241.332 238.12 237.23C239.169 233.127 240.065 222.811 240.065 222.811C240.065 222.811 284.853 222.733 289.114 219.791L289.117 219.784Z" fill="#AAAAAA"/>
<path d="M356.036 254.398C359.368 255.47 362.059 257.067 363.909 260.557C365.333 263.242 365.326 271.831 364.557 274.653C363.886 277.119 366.671 286.836 365.385 298.606C366.974 298.374 367.925 298.208 367.925 298.208C367.925 298.208 367.824 296.862 367.922 291.958C368.02 287.054 366.385 275.904 366.385 275.904C366.385 275.904 366.577 273.597 367.251 269.202C367.925 264.806 366.769 259.465 365.424 257.07C364.079 254.675 359.561 253.336 359.561 253.336C352.258 249.517 333.42 244.467 328.231 242.991C323.043 241.518 303.244 238.119 296.71 232.352C296.71 232.352 303.375 238.761 311.062 241.58C318.749 244.398 347.342 251.596 356.039 254.398H356.036Z" fill="#FFF29C"/>
<path d="M250.453 331.692L245.391 329.352C245.391 329.352 250.58 333.487 250.772 334.448C250.964 335.409 250.388 337.524 248.945 338.775C248.945 338.775 246.681 358.688 243.984 367.756C245.267 367.658 246.026 367.567 246.026 367.567C246.026 367.567 248.401 357.456 249.554 351.943C250.707 346.429 251.078 339.382 251.078 339.382C251.078 339.382 252.743 338.228 252.743 336.817V333.741C252.743 333.741 257.114 322.975 260.062 315.797C263.01 308.619 267.749 289.006 267.749 289.006C269.577 286.025 274.99 280.322 274.99 280.322C274.99 280.322 270.476 283.991 265.831 287.11C265.831 287.11 260.694 311.056 250.453 331.688V331.692Z" fill="#FFF29C"/>
<path d="M343.622 270.964C343.622 270.964 336.518 277.181 335.805 276.468C333.88 274.542 340.114 265.001 340.114 265.001L329.567 274.633C329.567 274.633 323.652 276.171 318.652 276.008C314.746 275.885 299.391 273.666 291.886 271.238C289.788 270.56 284.352 259.035 284.352 259.035L282.059 274.907C281.785 277.201 274.987 280.319 274.987 280.319C277.678 279.648 283.541 277.436 283.541 277.436C283.541 277.436 306.99 280.896 312.854 281.28C318.717 281.665 329.769 280.319 330.632 280.798C331.499 281.281 334.284 280.124 334.284 280.124C334.284 280.124 333.994 281.854 334.766 282.528C335.534 283.203 336.88 282.721 336.88 282.721C335.821 287.048 335.534 298.198 335.534 298.198C336.704 298.752 338.14 299.153 339.749 299.44C338.857 293.695 339.381 282.297 339.381 280.316C339.381 277.911 343.626 270.958 343.626 270.958L343.622 270.964Z" fill="#0A071E"/>
<path d="M338.609 370.913C338.609 370.913 338.16 370.979 338.098 371.49C338.036 372.002 338.163 373.732 338.355 374.055C338.548 374.374 351.873 375.527 353.284 375.335C354.694 375.143 356.101 374.055 356.101 374.055C356.101 374.055 357.382 373.735 359.818 375.081C362.251 376.427 371.287 376.554 377.118 376.234C382.948 375.915 389.356 374.472 389.61 374.055C389.867 373.637 389.994 371.588 389.225 371.331C388.457 371.073 367.186 367.772 356.359 368.414C345.531 369.056 338.613 370.913 338.613 370.913H338.609Z" fill="#0A071E"/>
<path d="M337.583 315.028C337.583 315.028 338.095 342.588 338.609 345.534C338.609 345.534 337.199 348.482 338.098 349.763C338.997 351.044 339.636 351.558 339.636 351.558C339.636 351.558 339.124 353.481 338.609 358.479C338.095 363.478 338.352 370.464 338.609 370.913C338.867 371.363 349.437 373.155 353.473 372.709C353.473 372.709 355.714 370.529 356.036 370.467C356.355 370.402 358.277 372.406 359.238 372.78C360.199 373.158 367.44 374.054 372.883 374.054C378.326 374.054 388.515 372.517 389.157 371.94C389.799 371.363 390.245 364.761 388.58 363.031C386.916 361.301 380.378 360.213 378.714 360.213C377.049 360.213 371.027 357.104 368.782 355.117C366.541 353.129 363.209 350.02 363.209 350.02C363.209 350.02 363.912 348.163 363.401 347.137C362.89 346.11 361.864 345.182 361.864 345.182C361.864 345.182 363.453 322.467 363.584 315.546C363.584 315.546 340.274 311.949 337.583 315.028Z" fill="#0A071E"/>
<path d="M378.717 360.213C377.053 360.213 371.03 357.104 368.785 355.117C366.544 353.129 363.212 350.02 363.212 350.02C363.212 350.02 363.916 348.163 363.404 347.137C362.893 346.11 361.867 345.182 361.867 345.182C361.867 345.182 363.456 322.467 363.587 315.546C363.587 315.546 362.31 315.351 360.32 315.087L359.564 344.83C359.564 344.83 356.105 347.329 353.991 347.619C353.991 347.619 356.779 348.196 359.948 346.273C359.948 346.273 362.544 347.762 361.776 349.831L358.701 352.715C358.701 352.715 360.766 352.233 361.44 351.848C361.44 351.848 370.088 359.538 372.395 360.548C374.701 361.558 376.623 362.086 378.401 362.376C380.18 362.666 385.225 363.53 386.33 363.963C387.154 364.286 388.782 366.27 389.733 368.616C389.789 366.505 389.522 364.006 388.587 363.035C386.922 361.304 380.385 360.216 378.72 360.216L378.717 360.213Z" fill="#FFF29C"/>
<path d="M335.749 293.115C335.749 293.115 334.316 294.265 333.932 295.289C333.548 296.315 332.906 300.033 332.779 303.747C332.652 307.465 332.394 318.104 332.714 318.938C333.033 319.772 338.095 321.887 344.052 323.617C350.01 325.347 359.365 323.937 362.759 322.399C366.154 320.861 374.163 315.924 374.548 315.285C374.932 314.644 373.01 297.341 371.922 295.096C370.834 292.854 367.919 291.955 367.919 291.955C367.919 291.955 367.583 297.191 367.114 297.736C365.811 299.241 353.153 299.264 347.323 299.072C341.492 298.879 337.531 298.563 336.635 298.052C335.74 297.54 335.753 293.115 335.753 293.115H335.749Z" fill="#0A071E"/>
<path d="M366.74 320.303C370.284 318.287 374.284 315.735 374.554 315.285C374.939 314.644 373.017 297.341 371.929 295.096C370.841 292.854 367.925 291.955 367.925 291.955C367.925 291.955 367.59 297.191 367.121 297.736C365.919 299.127 355.059 299.251 348.805 299.111C348.805 299.111 357.45 300.544 367.74 298.847C368.925 298.651 369.079 294.598 369.079 294.598C369.079 294.598 370.759 295.416 371.049 296.041C371.339 296.667 373.114 314.308 373.114 314.692C373.114 314.943 369.629 317.931 366.743 320.303H366.74Z" fill="#FFF29C"/>
<path d="M212.15 440.263C212.15 440.263 211.368 441.478 211.306 442.185C211.241 442.889 210.856 446.541 211.306 448.083C211.755 449.621 212.267 451.416 213.228 452.631C214.189 453.85 225.335 456.991 227.195 457.183C229.052 457.376 245.104 454.042 246.528 452.954C247.951 451.866 247.313 448.34 246.159 447.633C245.006 446.926 214.726 439.497 212.15 440.266V440.263Z" fill="#0A071E"/>
<path d="M215.853 382.282C215.853 382.282 214.684 410.23 214.485 413.006C214.286 415.782 213.179 415.603 213.166 417.004C213.146 419.301 214.827 421.034 214.827 421.034C214.827 421.676 213.746 431.546 213.166 434.622C212.586 437.698 211.817 441.673 211.944 442.442C212.071 443.211 213.277 448.275 213.892 449.171C214.508 450.067 225.785 453.4 228.156 453.528C230.528 453.655 242.7 452.501 246.078 449.907C246.945 449.243 246.417 440.262 245.71 439.109C245.006 437.956 242.251 436.483 241.225 435.521C240.199 434.56 236.804 422.576 236.804 421.165C236.804 419.754 238.215 419.014 238.726 417.91C239.238 416.805 237.958 412.96 237.958 412.96C237.958 412.96 239.303 403.602 240.583 398.219C241.863 392.836 243.016 384.762 243.016 384.762C243.016 384.762 223.156 379.043 215.85 382.285L215.853 382.282Z" fill="#0A071E"/>
<path d="M246.078 449.904C246.945 449.239 246.417 440.259 245.71 439.106C245.006 437.952 242.251 436.479 241.225 435.518C240.199 434.557 236.804 422.572 236.804 421.162C236.804 419.751 238.215 419.011 238.726 417.906C239.238 416.802 237.958 412.957 237.958 412.957C237.958 412.957 239.303 403.599 240.583 398.216C241.863 392.833 243.016 384.755 243.016 384.755C243.016 384.755 241.26 384.25 238.606 383.624L235.456 412.696C235.456 412.696 236.866 414.746 236.609 416.157C236.352 417.568 234.912 419.523 234.814 420.484C234.72 421.445 239.202 435.29 238.785 435.675C238.785 435.675 236.446 435.098 232.026 435.675C232.026 435.675 239.713 437.02 241.348 437.887C242.808 438.659 243.345 447.555 242.896 451.367C244.231 450.944 245.352 450.458 246.072 449.904H246.078Z" fill="#FFF29C"/>
<path d="M216.541 357.583C216.541 357.583 216.303 361.816 216.814 362.712C217.326 363.608 227.485 368.274 243.889 366.844C245.606 366.694 247.508 361.164 247.508 361.164C247.508 361.164 249.857 362.516 250.625 363.432C251.394 364.348 251.85 383.875 251.218 384.693C249.039 387.512 236.801 391.295 233.342 391.295C229.883 391.295 219.166 389.18 216.482 387.577C213.801 385.974 211.107 380.975 211.238 380.079C211.365 379.183 212.967 360.982 213.928 359.763C214.889 358.544 216.537 357.583 216.537 357.583H216.541Z" fill="#0A071E"/>
<path d="M247.508 361.164C247.508 361.164 245.606 366.694 243.889 366.844C237.971 367.362 232.87 367.081 228.736 366.472C228.935 366.501 236.485 368.74 244.303 367.841C246.531 367.583 247.889 363.611 247.889 363.611C247.889 363.611 249.169 364.123 249.427 364.507C249.684 364.892 249.554 383.605 249.427 384.312C249.3 385.016 238.697 390.578 234.006 391.262C238.143 390.878 249.163 387.359 251.221 384.697C251.853 383.879 251.397 364.351 250.629 363.435C249.86 362.52 247.511 361.167 247.511 361.167L247.508 361.164Z" fill="#FFF29C"/>
<path d="M193.583 28.697C184.869 29.3975 177.808 29.9645 177.495 26.0935C177.182 22.2225 184.247 21.6523 192.961 20.9517C201.674 20.2511 230.062 17.4424 230.414 21.7891C230.762 26.1359 202.296 27.9964 193.583 28.697Z" fill="#5B1300"/>
<path d="M179.576 30.7889C176.909 31.0039 174.57 29.013 174.355 26.3411C174.14 23.6725 176.13 21.3329 178.801 21.1179C181.469 20.9028 183.808 22.8937 184.023 25.5656C184.238 28.2343 182.247 30.5738 179.576 30.7889Z" fill="#852D16"/>
<path d="M179.469 29.4366C177.547 29.5898 175.863 28.1561 175.71 26.2336C175.557 24.3111 176.99 22.6265 178.912 22.4734C180.834 22.3202 182.518 23.7539 182.671 25.6764C182.824 27.5989 181.391 29.2835 179.469 29.4366Z" fill="url(#paint0_radial_1001_16048)"/>
<path d="M215.801 40.0819C215.801 40.0819 216.762 36.5563 218.749 35.2105C220.736 33.8648 222.273 33.6074 223.619 32.2617C224.964 30.9159 224.195 28.7361 224.645 27.3252C225.094 25.9143 225.863 23.0957 226.502 21.1732C227.143 19.2508 225.86 16.4941 224.837 16.1096C223.811 15.7252 222.146 16.4941 222.146 16.4941C222.146 16.4941 220.482 12.5221 219.137 12.3299C217.791 12.1376 215.612 12.7144 215.42 13.0989C215.228 13.4834 215.101 14.5717 215.101 14.5717C215.101 14.5717 214.267 13.0337 213.052 12.7144C211.834 12.395 210.811 12.395 210.361 12.9066C209.912 13.4182 209.527 14.2523 209.527 14.2523C209.527 14.2523 208.055 12.7144 206.964 12.7144C205.873 12.7144 204.915 12.8414 204.466 13.3563C204.016 13.8679 203.57 15.471 203.57 15.471C203.57 15.471 202.225 14.4446 201.521 14.6368C200.817 14.8291 199.599 14.9562 199.407 15.3407C199.215 15.7252 198.231 17.9604 198.039 20.5248C198.039 20.5248 199.759 20.502 200.049 20.805C200.488 21.2645 200.433 23.288 201.394 24.3144C202.355 25.3408 203.443 24.8911 204.15 24.6337C204.856 24.3763 205.238 23.3531 205.238 23.3531C205.238 23.3531 205.749 24.5718 206.84 24.8259C207.928 25.0834 209.273 24.6989 209.596 24.4414C209.915 24.184 210.365 22.8383 210.365 22.8383C210.365 22.8383 210.941 24.184 211.71 24.3763C212.479 24.5685 213.697 24.3763 214.273 24.057C214.85 23.7376 215.169 22.9035 215.169 22.9035C215.169 22.9035 215.488 23.9918 216.387 24.5685C216.387 24.5685 213.57 25.3375 212.094 27.0026L197.902 28.3548C197.902 28.3548 197.869 31.1049 198.961 33.8616C200.049 36.6182 200.306 39.4367 200.306 39.4367C200.306 39.4367 212.671 40.9747 215.811 40.0786L215.801 40.0819Z" fill="#0A071E"/>
<path d="M226.501 21.1765C227.143 19.254 225.86 16.4974 224.837 16.1129C223.811 15.7284 222.146 16.4974 222.146 16.4974C222.146 16.4974 220.482 12.5254 219.137 12.3331C217.791 12.1409 215.612 12.7176 215.42 13.1021C215.228 13.4866 215.101 14.5749 215.101 14.5749C215.101 14.5749 214.267 13.037 213.052 12.7176C211.834 12.3983 210.811 12.3983 210.361 12.9099C209.912 13.4215 209.527 14.2556 209.527 14.2556C209.527 14.2556 208.055 12.7176 206.964 12.7176C205.873 12.7176 204.915 12.8447 204.466 13.3595C204.016 13.8711 203.57 15.4743 203.57 15.4743C203.57 15.4743 202.225 14.4479 201.521 14.6401C200.817 14.8324 199.599 14.9594 199.407 15.3439C199.27 15.6144 198.739 16.8167 198.371 18.4003C198.413 18.2635 199.41 15.95 199.814 15.761C200.221 15.5688 201.4 15.2559 201.977 15.2788C202.553 15.3016 203.322 15.7838 203.635 16.2628C203.948 16.745 204.668 20.3 204.668 20.3C204.668 20.3 204.042 16.0706 204.234 15.4938C204.426 14.9171 204.641 14.0275 204.98 13.7636C205.316 13.4997 206.902 13.2813 207.335 13.3302C207.769 13.3791 209.257 14.6043 209.426 14.891C209.596 15.1777 210.195 20.1077 210.195 20.1077C210.195 20.1077 209.834 15.0604 210.052 14.6271C210.267 14.1937 210.628 13.3302 210.843 13.1836C211.058 13.0402 212.909 13.1347 213.606 13.5192C214.303 13.9037 214.974 14.9399 215.049 15.2625C215.12 15.585 215.433 19.8373 215.433 19.8373C215.433 19.8373 215.648 14.1904 215.866 13.7343C216.081 13.2781 218.726 12.7242 219.254 12.8936C219.782 13.063 221.658 16.5789 221.658 16.5789C221.658 16.5789 219.628 18.3645 218.847 18.8044C217.309 19.6711 216.283 19.9188 215.775 20.098C214.883 20.414 214.57 21.7598 215.169 22.897C215.169 22.897 215.488 23.9853 216.387 24.562C216.387 24.562 215.433 22.431 215.531 21.8315C215.628 21.2319 215.651 20.8213 216.251 20.5574C216.85 20.2935 218.052 19.9318 219.374 19.2834C220.697 18.6349 222.208 17.0709 222.642 16.8786C223.075 16.6864 224.078 16.6636 224.668 16.8298C225.26 16.9992 226.15 19.329 226.124 20.1697C226.111 20.6389 225.896 22.3365 225.71 23.7409C225.977 22.8351 226.254 21.9292 226.508 21.1635L226.501 21.1765Z" fill="#FFF29C"/>
<path d="M225.427 0L222.029 0.827641L223.247 23.2456L226.124 44.9793L229.078 44.5297L225.427 0Z" fill="url(#paint1_linear_1001_16048)"/>
<path d="M223.247 23.2456L227.29 22.7178L225.427 0L222.029 0.827641L223.247 23.2456Z" fill="url(#paint2_linear_1001_16048)"/>
<path d="M226.124 44.9793L226.997 45.1162L229.775 44.8262L229.078 44.5296L226.124 44.9793Z" fill="#590808"/>
<path d="M225.427 0L229.078 44.5297L229.775 44.8262L228.945 28.3711L227.945 16.4323L226.111 0.215056L225.427 0Z" fill="url(#paint3_linear_1001_16048)"/>
<path d="M227.228 16.253C227.228 16.253 360.31 3.91011 365.704 3.78629C372.795 3.62011 389.225 3.98831 389.466 5.17438C389.704 6.36045 372.671 12.0692 366.066 12.5645C359.46 13.0565 228.127 26.794 228.127 26.794L227.228 16.2563V16.253Z" fill="#FFAF1D"/>
<path d="M371.326 6.76776L229.312 20.9191C228.918 20.9582 228.632 21.3101 228.671 21.7011C228.707 22.0693 229.019 22.3463 229.381 22.3463C229.404 22.3463 229.43 22.3463 229.453 22.343L371.466 8.19169C371.86 8.15259 372.147 7.80068 372.108 7.40967C372.069 7.0154 371.72 6.72866 371.326 6.76776Z" fill="#FFF29C"/>
<path d="M199.72 94.9441C199.72 94.9441 198.821 93.2269 198.182 87.9711C197.54 82.7153 197.413 41.3658 198.439 38.6743C198.439 38.6743 208.69 34.7023 217.531 39.7008C217.531 39.7008 218.299 75.462 218.811 78.7954C219.322 82.1287 219.837 84.5628 219.837 84.5628C219.837 84.5628 216.635 90.4605 199.72 94.9441Z" fill="#AAAAAA"/>
<path d="M219.837 84.5594C219.837 84.5594 219.326 82.1254 218.811 78.792C218.296 75.4586 217.531 39.6974 217.531 39.6974C212.71 36.9734 207.475 36.9147 203.707 37.4263C206.912 37.7619 211.521 38.5439 214.925 40.3621C214.925 40.3621 215.697 76.1201 216.176 78.9517C216.462 80.6624 217.28 84.1815 217.879 86.7067C219.374 85.4066 219.837 84.5594 219.837 84.5594Z" fill="#FFF29C"/>
<path d="M191.381 95.84C191.381 95.84 188.817 100.069 188.69 101.353C188.563 102.634 191.638 113.273 193.303 118.017C194.967 122.758 208.039 144.808 208.039 144.808C208.039 144.808 212.811 164.515 220.404 176.02C222.645 179.415 224.055 183.391 226.619 189.67C229.182 195.949 235.716 211.716 235.716 214.408C235.716 217.099 234.563 218.637 235.716 220.817C236.87 222.997 238.918 222.74 238.918 222.74C238.918 222.74 238.759 226.392 238.374 227.353C237.99 228.315 235.394 229.95 235.684 231.391C235.974 232.834 236.453 234.949 236.55 236.774C236.648 238.602 230.977 250.231 228.863 257.924C226.749 265.614 225.98 273.307 225.98 273.307L228.752 275.999L229.537 273.115C229.537 273.115 232.228 274.845 241.358 277.442C250.489 280.039 259.906 277.442 259.906 277.442C259.906 277.442 261.349 262.349 263.655 255.555C265.961 248.761 269.036 232.355 269.036 232.355C269.036 232.355 271.453 243.903 275.57 251.068C281.977 262.219 294.277 270.296 295.945 271.192C297.609 272.088 303.889 263.757 305.427 260.042C306.964 256.324 317.984 243.89 321.573 242.867C325.16 241.84 328.629 242.58 328.629 242.58C328.629 242.58 328.108 240.944 326.955 240.56C325.802 240.175 312.86 237.741 310.297 236.842C307.733 235.946 295.945 228.383 295.945 228.383C295.945 228.383 295.945 226.718 295.049 226.076C294.153 225.434 291.332 224.281 291.332 224.281L291.075 219.282C291.075 219.282 293.254 218.386 293.381 216.848C293.508 215.31 291.075 204.672 291.075 204.672C291.075 204.672 305.042 196.597 308.759 183.778C308.759 183.778 298.635 168.526 297.613 163.013C296.586 157.499 297.612 150.836 290.052 144.684C282.492 138.532 273.505 136.994 273.505 136.994C273.505 136.994 271.28 135.072 269.485 134.495C267.691 133.918 246.293 129.431 244.817 130.138C244.817 130.138 239.948 121.679 231.749 116.743C231.749 116.743 227.394 88.287 222.394 79.9552C222.394 79.9552 200.612 85.98 191.384 95.8498L191.381 95.84Z" fill="#FFAF1D"/>
<path d="M326.948 240.557C325.795 240.172 312.854 237.738 310.29 236.839C307.727 235.943 295.938 228.38 295.938 228.38C295.938 228.38 295.938 226.715 295.042 226.073C294.147 225.431 291.326 224.278 291.326 224.278L291.068 219.279C291.068 219.279 293.248 218.383 293.375 216.845C293.502 215.307 291.068 204.668 291.068 204.668C290.697 199.689 291.805 193.805 293.824 186.115C295.844 178.425 294.593 168.04 293.824 164.87C293.055 161.696 292.095 156.506 292.095 156.506C292.095 156.506 292.479 162.178 292.863 166.118C293.248 170.061 293.922 176.597 292.381 184.769C291.244 190.81 288.73 198.132 288.73 201.4C288.73 204.668 290.749 214.378 290.557 215.532C290.508 215.832 289.339 218.129 285.753 218.768C283.72 219.129 276.336 219.664 276.336 219.664C276.336 219.664 269.176 223.365 266.87 223.799C264.563 224.232 259.326 222.212 259.326 222.212C259.326 222.212 250.896 223.248 248.384 223.166C252.016 223.28 256.068 223.342 259.326 223.222C259.326 223.222 263.075 224.76 266.821 224.568C270.57 224.375 274.798 221.684 275.085 221.684C275.332 221.684 284.277 220.827 289.117 219.787L289.984 224.903C294.124 225.737 295.13 229.706 295.13 229.706C295.13 229.706 307.648 237.451 309.668 238.123C311.687 238.797 322.446 240.905 322.446 240.905C322.446 240.905 318.626 241.303 314.583 245.428C311.577 248.497 304.974 256.676 303.437 260.521C301.899 264.366 298.218 270.078 298.215 270.085C300.746 267.794 304.316 262.72 305.424 260.042C306.961 256.324 317.981 243.89 321.57 242.867C325.157 241.84 328.626 242.58 328.626 242.58C328.626 242.58 328.104 240.944 326.951 240.56L326.948 240.557Z" fill="#FFF29C"/>
<path d="M254.039 145.573C248.912 138.395 245.71 132.885 245.71 132.885L245.889 130.07C245.345 130.041 244.967 130.057 244.814 130.129C244.814 130.129 239.945 121.67 231.746 116.733C231.746 116.733 227.391 88.2773 222.391 79.9455C222.391 79.9455 217.589 81.2749 211.54 83.7025C211.544 83.7025 220.599 81.705 221.56 81.6106C221.56 81.6106 228.736 110.907 229.026 118.118C229.026 118.118 240.241 125.932 243.378 134.775C243.378 134.775 249.026 139.418 257.176 150.692C256.238 148.933 255.189 147.177 254.046 145.573H254.039Z" fill="#FFF29C"/>
<path d="M296.134 164.384C296.616 167.076 306.994 184.091 306.994 184.091C306.994 184.091 304.697 191.211 299.062 198.52C302.873 194.926 306.981 189.888 308.756 183.772C308.756 183.772 298.632 168.519 297.609 163.006C296.583 157.493 297.609 150.829 290.049 144.677C282.489 138.526 273.502 136.988 273.502 136.988C273.502 136.988 272.075 135.756 270.586 134.971C270.586 134.971 272.436 136.61 273.107 137.91C273.107 137.91 283.834 141.777 289.792 147.085C295.749 152.393 295.655 161.699 296.134 164.391V164.384Z" fill="#FFF29C"/>
<path d="M259.902 277.439C259.902 277.439 261.345 262.346 263.651 255.552C265.958 248.758 269.033 232.352 269.033 232.352C269.033 232.352 264.805 249.527 262.368 255.167C259.935 260.808 258.059 271.932 257.775 275.48C257.775 275.48 247.479 278.951 229.534 273.112C229.534 273.112 232.225 274.842 241.355 277.439C250.485 280.036 259.902 277.439 259.902 277.439Z" fill="#FFF29C"/>
<path d="M238.918 222.74C238.918 222.74 251.443 223.509 259.326 223.222C259.326 223.222 263.075 224.76 266.821 224.568C270.57 224.375 274.798 221.684 275.085 221.684C275.371 221.684 287.355 220.53 291.069 219.279C291.069 219.279 292.336 222.622 291.326 224.278C291.326 224.278 278.642 230.527 268.645 230.527C258.648 230.527 243.179 229.276 238.371 227.353C238.371 227.353 237.537 224.757 238.915 222.74H238.918Z" fill="#0A071E"/>
<path d="M259.44 85.8009C259.44 85.8009 274.059 113.123 273.981 117.222C273.902 121.321 266.3 123.745 266.3 123.745L266.844 135.935C266.844 135.935 269.974 138.033 269.811 146.854C269.665 154.759 266.44 160.201 266.44 160.201C266.44 160.201 242.642 146.294 243.114 134.635C243.114 134.635 242.033 128.307 241.583 124.837C241.133 121.367 240.479 120.063 236.365 113.833C232.251 107.603 226.756 92.888 238.046 85.4034C249.332 77.9188 258.306 83.6568 259.44 85.8009Z" fill="#0A071E"/>
<path d="M273.981 117.222C273.964 118.154 273.557 118.995 272.941 119.744C269.971 114.775 256.173 93.2073 256.173 93.2073C258.544 92.3699 260.658 91.1187 261.837 90.3529C265.981 98.3035 274.039 114.175 273.981 117.222Z" fill="#FFAF1D"/>
<path d="M266.3 123.745L266.844 135.935C266.844 135.935 266.329 141.745 264.775 144.863L262.977 126.759C262.977 126.759 261.117 126.916 258.362 126.929C255.606 126.942 253.677 123.781 253.677 123.781C256.827 126.678 266.303 123.742 266.303 123.742L266.3 123.745Z" fill="#FFAF1D"/>
<path d="M258.436 88.0557C258.436 88.0557 254.225 87.114 251.394 89.4634C248.563 91.8127 249.658 95.0385 251.241 97.6974C252.827 100.356 255.098 102.513 254.655 105.58C254.212 108.649 252.622 113.908 253.544 117.29C254.469 120.673 254.225 123.361 251.795 124.853C249.365 126.346 248.694 127.584 248.967 129.386C248.967 129.386 246.41 128.376 245.873 126.251C245.335 124.127 245.616 122.784 245.616 122.784C245.616 122.784 243.967 128.714 238.769 129.197C238.769 129.197 239.99 125.436 239.694 124.149C239.397 122.862 237.98 123.156 235.844 120.937C233.707 118.718 234.28 115.394 233.726 114.104C233.173 112.813 230.205 110.386 229.482 107.935C228.759 105.485 227.697 100.532 228.589 97.2152C229.485 93.8981 228.749 92.5393 231.508 88.6162C234.267 84.693 240.3 80.7015 244.283 80.1345C248.267 79.5675 255.296 80.6624 256.941 81.8126C258.586 82.9628 260.469 87.756 260.469 87.756C260.469 87.756 259.73 86.9576 259.254 86.6937C258.779 86.4298 258.427 88.0557 258.427 88.0557H258.436Z" fill="#FFF29C"/>
<path d="M239.7 124.153C239.404 122.866 237.987 123.159 235.85 120.94C233.713 118.721 234.287 115.397 233.733 114.107C233.179 112.817 230.212 110.389 229.489 107.939C228.765 105.488 227.703 100.536 228.596 97.2185C229.492 93.9014 228.756 92.5426 231.515 88.6195C234.274 84.6963 240.306 80.7048 244.29 80.1378C248.274 79.5708 255.303 80.6657 256.948 81.8159C256.948 81.8159 249.316 80.6917 244.365 81.679C238.87 82.7739 233.896 87.8961 232.179 90.6853C230.462 93.4745 230.41 96.166 230.609 99.3756C230.804 102.585 229.006 106.094 234.208 112.647C235.651 114.465 234.899 116.828 235.7 118.636C236.502 120.445 239.756 121.083 240.303 122.696C240.85 124.309 240.085 127.564 238.772 129.206C238.772 129.206 239.993 125.446 239.697 124.159L239.7 124.153Z" fill="#FFAF1D"/>
<path d="M304.186 397.893L320.349 387.434L338.098 371.49L377.965 367.756L392.502 370.574L410.405 397.893L439.046 412.198L465.187 475.496L396.082 467.187L331.222 459.627L274.215 456.33L283.499 423.078L304.186 397.893Z" fill="#FFCA6A"/>
<mask id="mask0_1001_16048" style="mask-type:alpha" maskUnits="userSpaceOnUse" x="369" y="20" width="42" height="42">
<path d="M395.307 20.5992L394.578 27.8725C393.926 34.3778 397.554 40.5698 403.598 43.2661L410.355 46.2807L402.974 45.5608C396.373 44.9169 390.09 48.491 387.355 54.4461L384.298 61.1043L385.027 53.8309C385.679 47.3257 382.05 41.1337 376.007 38.4374L369.25 35.4227L376.631 36.1426C383.232 36.7865 389.515 33.2125 392.249 27.2574L395.307 20.5992Z" fill="white"/>
</mask>
<g mask="url(#mask0_1001_16048)">
<rect width="70.4533" height="43.7468" transform="matrix(-0.965878 -0.258996 0.258642 -0.965973 418.335 70.7887)" fill="url(#paint4_radial_1001_16048)"/>
<rect width="70.4533" height="43.7468" transform="matrix(-0.965878 -0.258996 0.258642 -0.965973 418.335 70.7887)" fill="url(#paint5_angular_1001_16048)" style="mix-blend-mode:screen"/>
</g>
<mask id="mask1_1001_16048" style="mask-type:alpha" maskUnits="userSpaceOnUse" x="135" y="63" width="27" height="27">
<path d="M143.52 63.1285L146.002 67.3108C148.222 71.0515 152.61 72.9319 156.911 71.9854L161.719 70.9272L157.483 73.4607C153.695 75.7266 151.742 80.1247 152.63 84.3946L153.623 89.1686L151.14 84.9862C148.92 81.2455 144.532 79.3651 140.232 80.3116L135.424 81.3698L139.659 78.8364C143.448 76.5704 145.4 72.1723 144.513 67.9024L143.52 63.1285Z" fill="white"/>
</mask>
<g mask="url(#mask1_1001_16048)">
<rect width="46.886" height="29.1103" transform="matrix(-0.930766 0.365617 -0.365209 -0.930926 175.67 80.8932)" fill="url(#paint6_radial_1001_16048)"/>
<rect width="46.886" height="29.1103" transform="matrix(-0.930766 0.365617 -0.365209 -0.930926 175.67 80.8932)" fill="url(#paint7_angular_1001_16048)" style="mix-blend-mode:screen"/>
</g>
<mask id="mask2_1001_16048" style="mask-type:alpha" maskUnits="userSpaceOnUse" x="310" y="36" width="12" height="11">
<path d="M312.26 36.0964L313.955 37.68C315.471 39.0965 317.732 39.3713 319.575 38.3633L321.636 37.2363L320.034 38.9624C318.602 40.5063 318.295 42.7812 319.272 44.6179L320.364 46.6716L318.668 45.0879C317.152 43.6715 314.892 43.3966 313.049 44.4046L310.988 45.5316L312.59 43.8055C314.022 42.2617 314.329 39.9868 313.352 38.15L312.26 36.0964Z" fill="white"/>
</mask>
<g mask="url(#mask2_1001_16048)">
<rect width="22.3677" height="13.886" transform="matrix(-0.791137 0.611639 -0.611249 -0.791438 329.356 39.9362)" fill="url(#paint8_radial_1001_16048)"/>
<rect width="22.3677" height="13.886" transform="matrix(-0.791137 0.611639 -0.611249 -0.791438 329.356 39.9362)" fill="url(#paint9_angular_1001_16048)" style="mix-blend-mode:screen"/>
</g>
<g clip-path="url(#clip0_1001_16048)">
<path d="M253.117 68.6964L256.921 81.8501C252.878 82.1169 247.854 83.4686 242.745 85.8586C237.637 88.2486 233.383 91.2329 230.583 94.1672L222.932 82.8173L229.624 85.2457L229.387 87.8921L230.625 88.3194C231.914 88.7623 233.207 87.9156 233.352 86.5284L233.387 86.2033C233.476 85.385 233.132 84.5553 232.492 84.0306L230.347 82.2725L230.418 78.17L234.179 80.0836L234.606 82.4989C234.764 83.3919 235.397 84.1375 236.225 84.4078C237.734 84.8985 239.14 83.6427 238.908 82.0119L238.554 79.5187L231.98 73.909L234.011 67.1702L240.485 69.9303L240.573 78.5742L242.259 80.4443C243.361 81.6681 245.222 81.3956 245.816 79.9211C246.14 79.112 245.974 78.1474 245.39 77.4537L243.812 75.5773L244.755 71.4631L247.947 74.0388L247.92 76.8129C247.913 77.6408 248.328 78.4368 249.01 78.8944L249.282 79.0764C250.442 79.8531 251.917 79.4045 252.407 78.1294L252.873 76.905L250.692 75.3897L253.117 68.6964Z" fill="#FFAF1D"/>
</g>
<path d="M352.729 425.457L251.501 431.106L181.706 422.675L154.536 444.132L122.633 496.188L-5.72738e-06 589.625L152.682 592.109L431.985 586.425L671.403 590.319L534.569 530.557L500.318 484.002L427.861 464.846L352.729 425.457Z" fill="#FFAF1D"/>
<defs>
<radialGradient id="paint0_radial_1001_16048" cx="0" cy="0" r="1" gradientUnits="userSpaceOnUse" gradientTransform="translate(177.85 25.2104) scale(4.48212 4.48359)">
<stop stop-color="#FC8012"/>
<stop offset="0.01" stop-color="#F97E12"/>
<stop offset="0.23" stop-color="#D06113"/>
<stop offset="0.44" stop-color="#B04B15"/>
<stop offset="0.64" stop-color="#993B16"/>
<stop offset="0.83" stop-color="#8B3116"/>
<stop offset="1" stop-color="#872E17"/>
</radialGradient>
<linearGradient id="paint1_linear_1001_16048" x1="225.313" y1="19.0716" x2="228.862" y2="45.3603" gradientUnits="userSpaceOnUse">
<stop stop-color="#590808"/>
<stop offset="1" stop-color="#872E17"/>
</linearGradient>
<linearGradient id="paint2_linear_1001_16048" x1="224.472" y1="-0.136854" x2="224.85" y2="23.8289" gradientUnits="userSpaceOnUse">
<stop stop-color="#590808"/>
<stop offset="0.17" stop-color="#5E0B08"/>
<stop offset="0.37" stop-color="#6C1509"/>
<stop offset="0.59" stop-color="#85250B"/>
<stop offset="0.82" stop-color="#A63C0D"/>
<stop offset="1" stop-color="#C75210"/>
</linearGradient>
<linearGradient id="paint3_linear_1001_16048" x1="227.042" y1="16.0771" x2="228.251" y2="27.9246" gradientUnits="userSpaceOnUse">
<stop stop-color="#C75210"/>
<stop offset="0.2" stop-color="#C34F0F"/>
<stop offset="0.39" stop-color="#B7470E"/>
<stop offset="0.57" stop-color="#A43A0D"/>
<stop offset="0.76" stop-color="#88280B"/>
<stop offset="0.94" stop-color="#661008"/>
<stop offset="1" stop-color="#590808"/>
</linearGradient>
<radialGradient id="paint4_radial_1001_16048" cx="0" cy="0" r="1" gradientUnits="userSpaceOnUse" gradientTransform="translate(-8.06148e-07 0.037335) rotate(31.8156) scale(82.9108 61.1735)">
<stop offset="0.0760668" stop-color="#071B3A"/>
<stop offset="0.351413" stop-color="#4B6283"/>
<stop offset="0.634538" stop-color="#FBDFFD"/>
<stop offset="1" stop-color="white"/>
</radialGradient>
<radialGradient id="paint5_angular_1001_16048" cx="0" cy="0" r="1" gradientUnits="userSpaceOnUse" gradientTransform="translate(35.2267 21.8734) rotate(90) scale(21.8734 35.2267)">
<stop offset="0.110186" stop-color="#1B192D"/>
<stop offset="0.38305" stop-color="white"/>
<stop offset="0.613985" stop-color="#1B192D"/>
<stop offset="0.893207" stop-color="white"/>
</radialGradient>
<radialGradient id="paint6_radial_1001_16048" cx="0" cy="0" r="1" gradientUnits="userSpaceOnUse" gradientTransform="translate(-5.36483e-07 0.0248437) rotate(31.8132) scale(55.1748 40.7075)">
<stop offset="0.0760668" stop-color="#071B3A"/>
<stop offset="0.351413" stop-color="#4B6283"/>
<stop offset="0.634538" stop-color="#FBDFFD"/>
<stop offset="1" stop-color="white"/>
</radialGradient>
<radialGradient id="paint7_angular_1001_16048" cx="0" cy="0" r="1" gradientUnits="userSpaceOnUse" gradientTransform="translate(23.443 14.5551) rotate(90) scale(14.5551 23.443)">
<stop offset="0.110186" stop-color="#1B192D"/>
<stop offset="0.38305" stop-color="white"/>
<stop offset="0.613985" stop-color="#1B192D"/>
<stop offset="0.893207" stop-color="white"/>
</radialGradient>
<radialGradient id="paint8_radial_1001_16048" cx="0" cy="0" r="1" gradientUnits="userSpaceOnUse" gradientTransform="translate(-2.55937e-07 0.0118508) rotate(31.8104) scale(26.3212 19.4186)">
<stop offset="0.0760668" stop-color="#071B3A"/>
<stop offset="0.351413" stop-color="#4B6283"/>
<stop offset="0.634538" stop-color="#FBDFFD"/>
<stop offset="1" stop-color="white"/>
</radialGradient>
<radialGradient id="paint9_angular_1001_16048" cx="0" cy="0" r="1" gradientUnits="userSpaceOnUse" gradientTransform="translate(11.1838 6.94301) rotate(90) scale(6.94301 11.1838)">
<stop offset="0.110186" stop-color="#1B192D"/>
<stop offset="0.38305" stop-color="white"/>
<stop offset="0.613985" stop-color="#1B192D"/>
<stop offset="0.893207" stop-color="white"/>
</radialGradient>
<clipPath id="clip0_1001_16048">
<rect width="33.3246" height="26.3528" fill="white" transform="matrix(0.905784 -0.423739 0.423396 0.905945 218.919 74.2307)"/>
</clipPath>
</defs>
</svg>
