<svg width="121" height="54" viewBox="0 0 121 54" fill="none" xmlns="http://www.w3.org/2000/svg">
<path d="M17.2053 17.5711V4.08464C17.482 3.73403 17.6468 3.28834 17.6468 2.807C17.6468 1.66901 16.7343 0.747925 15.6069 0.747925C14.4795 0.747925 13.567 1.66901 13.567 2.807C13.567 3.29132 13.7318 3.73403 14.0085 4.08464V17.5711H5.31311V22.3133H5.69284C6.71427 21.5942 7.95648 21.1693 9.29876 21.1693C10.641 21.1693 11.8803 21.5942 12.9047 22.3133C12.9135 22.3192 12.9194 22.3252 12.9282 22.3281V40.7558H18.2915V22.2865C19.307 21.5823 20.5375 21.1664 21.8621 21.1664C23.1867 21.1664 24.4437 21.5913 25.468 22.3103H25.7683V17.5682H17.2082L17.2053 17.5711Z" fill="#FFAF1D"/>
<path fill-rule="evenodd" clip-rule="evenodd" d="M30.0139 33.9029C30.2475 34.0763 30.38 34.3677 30.3751 34.7241H30.3727C30.3487 36.7495 30.3294 38.7749 30.3751 40.8003C30.387 41.2867 30.0937 41.4987 29.8204 41.6963C29.7608 41.7394 29.7022 41.7818 29.6478 41.8262C28.594 42.6898 26.5106 44.385 24.262 46.2146C20.8481 48.9925 17.0536 52.0801 15.9036 53.0369C15.6387 53.2585 15.4027 53.3548 15.092 53.0995C12.5127 50.985 3.02632 43.2495 0.856431 41.5059C0.598741 41.2988 0.5 41.0941 0.5 40.7738V37.4431C0.5 37.4431 7.73217 29.9315 8.26922 29.3849C8.48597 29.1585 8.74125 29.091 9.01821 29.3439C9.20716 29.5187 9.40367 29.6853 9.60039 29.8521C9.77225 29.9978 9.94427 30.1436 10.1116 30.2952C10.4126 30.5673 10.6318 30.6829 10.9786 30.2832C11.6983 29.457 12.433 28.6438 13.1678 27.8305C13.8125 27.117 14.4572 26.4034 15.092 25.6809C15.3665 25.3678 15.5809 25.416 15.8217 25.6327C16.3808 26.137 17.2794 26.9598 18.1833 27.7874C19.5453 29.0345 20.9192 30.2924 21.1609 30.4879C21.4355 30.7118 21.4186 30.9021 21.2284 31.155C20.6636 31.9052 20.0988 32.6561 19.5339 33.407C19.105 33.9772 18.6761 34.5473 18.2473 35.1173V36.5307C20.3268 34.4302 22.4035 32.3269 24.4675 30.2109C24.8481 29.8184 25.0937 29.8232 25.4598 30.1314C25.8566 30.4655 26.2508 30.8027 26.6449 31.14C27.7482 32.084 28.8517 33.0281 30.0139 33.9029Z" fill="white"/>
<path d="M34 39.9578L39.2126 26.0001H43.1918L48.4641 39.9578H44.7038L41.2221 29.6491H41.1624L37.621 39.9578H34ZM37.9393 37.585V34.8334H44.4452V37.585H37.9393Z" fill="#FFAF1D"/>
<path d="M50.0752 39.9578V26.0001H56.8596C57.8941 26.0001 58.7828 26.1796 59.5256 26.5385C60.2816 26.8974 60.8652 27.4092 61.2764 28.0738C61.7008 28.7385 61.913 29.5294 61.913 30.4467C61.913 31.2841 61.7472 31.9953 61.4156 32.5802C61.0973 33.1651 60.653 33.637 60.0826 33.9959C59.5256 34.3415 58.8823 34.6007 58.1528 34.7735C57.4233 34.9331 56.654 35.0128 55.8449 35.0128H53.5768V39.9578H50.0752ZM58.7695 39.9578L55.7454 34.6738L59.0481 34.0358L62.6492 39.9578H58.7695ZM53.5768 32.4007H56.2627C56.9789 32.4007 57.5161 32.2545 57.8742 31.9621C58.2456 31.6563 58.4313 31.211 58.4313 30.6261C58.4313 30.0545 58.2456 29.6358 57.8742 29.3699C57.5161 29.1041 56.9723 28.9711 56.2428 28.9711H53.5768V32.4007Z" fill="#FFAF1D"/>
<path d="M67.861 39.9578V29.0708H63.3845V26.0001H75.8193V29.0708H71.3627V39.9578H67.861Z" fill="#FFAF1D"/>
<path d="M77.723 39.9578V26.0001H81.2247V31.2841H87.0938V26.0001H90.6154V39.9578H87.0938V34.3548H81.2247V39.9578H77.723Z" fill="#FFAF1D"/>
<path d="M99.4318 40.1572C98.1186 40.1572 96.978 39.9246 96.0097 39.4594C95.0547 38.9941 94.3186 38.3294 93.8013 37.4654C93.284 36.5881 93.0254 35.5379 93.0254 34.3149V26.0001H96.527V33.8164C96.527 34.9597 96.7923 35.7572 97.3228 36.2092C97.8534 36.6479 98.5961 36.8672 99.5511 36.8672C100.506 36.8672 101.236 36.6479 101.74 36.2092C102.257 35.7572 102.516 34.9597 102.516 33.8164V26.0001H105.898V34.3149C105.898 35.5379 105.626 36.5881 105.082 37.4654C104.552 38.3294 103.802 38.9941 102.834 39.4594C101.866 39.9246 100.732 40.1572 99.4318 40.1572Z" fill="#FFAF1D"/>
<path d="M108.305 39.9578V26.0001H115.089C116.124 26.0001 117.012 26.1796 117.755 26.5385C118.511 26.8974 119.095 27.4092 119.506 28.0738C119.93 28.7385 120.143 29.5294 120.143 30.4467C120.143 31.2841 119.977 31.9953 119.645 32.5802C119.327 33.1651 118.883 33.637 118.312 33.9959C117.755 34.3415 117.112 34.6007 116.382 34.7735C115.653 34.9331 114.884 35.0128 114.074 35.0128H111.806V39.9578H108.305ZM116.999 39.9578L113.975 34.6738L117.278 34.0358L120.879 39.9578H116.999ZM111.806 32.4007H114.492C115.208 32.4007 115.746 32.2545 116.104 31.9621C116.475 31.6563 116.661 31.211 116.661 30.6261C116.661 30.0545 116.475 29.6358 116.104 29.3699C115.746 29.1041 115.202 28.9711 114.472 28.9711H111.806V32.4007Z" fill="#FFAF1D"/>
<path d="M34.0001 44.1704H41.5559V45.8221H36.5167V46.648H41.5559V48.1419H36.5167V48.9678H41.5559V50.6257H34.0001V44.1704Z" fill="white"/>
<path d="M48.6997 44.1704H51.8453L48.4599 47.3981L51.8453 50.6257H48.6997L46.8881 48.7383L45.0765 50.6257H41.9247L45.3101 47.3981L41.9247 44.1704H45.0765L46.8881 46.0537L48.6997 44.1704Z" fill="white"/>
<path d="M57.4487 47.942H60.0288C59.9837 48.483 59.8423 48.9379 59.6005 49.3027C59.3587 49.6675 59.041 49.9605 58.6455 50.1778C58.25 50.395 57.793 50.5466 57.2786 50.6389C56.7642 50.7311 56.2171 50.7762 55.633 50.7762C55.049 50.7762 54.4547 50.7249 53.9198 50.6245C53.3849 50.5241 52.9177 50.354 52.514 50.1163C52.1103 49.8786 51.7947 49.5548 51.5652 49.149C51.3356 48.7433 51.2209 48.235 51.2209 47.6264V47.1551C51.2209 46.5464 51.3356 46.0402 51.5652 45.6345C51.7947 45.2287 52.1103 44.907 52.514 44.6693C52.9177 44.4315 53.3849 44.2594 53.9198 44.1569C54.4547 44.0545 55.0244 44.0032 55.633 44.0032C56.2417 44.0032 56.7642 44.0504 57.2786 44.1426C57.793 44.2348 58.2479 44.3906 58.6455 44.6057C59.0431 44.8209 59.3607 45.1119 59.6005 45.4767C59.8402 45.8415 59.9837 46.2944 60.0288 46.8354H57.4487C57.3708 46.6263 57.2458 46.4665 57.0696 46.3497C56.8933 46.2329 56.6823 46.155 56.4364 46.114C56.1904 46.073 55.922 46.0525 55.6351 46.0525C55.2887 46.0525 54.9732 46.0853 54.6862 46.1489C54.3993 46.2124 54.1719 46.3353 54.0018 46.5157C53.8317 46.696 53.7477 46.9624 53.7477 47.3108V47.4686C53.7477 47.8149 53.8317 48.0772 54.0018 48.2596C54.1719 48.442 54.3993 48.5629 54.6862 48.6285C54.9732 48.6941 55.2887 48.7269 55.6351 48.7269C55.924 48.7269 56.1904 48.7043 56.4364 48.6613C56.6823 48.6183 56.8933 48.5404 57.0696 48.4256C57.2458 48.3109 57.3729 48.149 57.4487 47.9379V47.942Z" fill="white"/>
<path d="M63.2919 48.4101V50.6152H60.7754V44.1599H63.2919V46.3649H67.0729V44.1599H69.5935V50.6152H67.0729V48.4101H63.2919Z" fill="white"/>
<path d="M73.2494 44.1704H76.2414L79.7047 50.6257H76.8705L76.3623 49.5211H73.1306L72.6223 50.6257H69.7881L73.2515 44.1704H73.2494ZM73.8601 47.9452H75.6328L74.7495 46.0394L73.8601 47.9452Z" fill="white"/>
<path d="M86.1958 44.1599H88.7165V50.6152H85.8823L82.4149 46.6723V50.6152H79.8983V44.1599H83.3616L86.1958 47.5802V44.1599Z" fill="white"/>
<path d="M93.9345 47.0699H98.32V50.773H97.0618L96.9368 49.7689C96.6867 50.0148 96.3998 50.2115 96.076 50.3591C95.7523 50.5066 95.41 50.6111 95.0452 50.6767C94.6805 50.7423 94.3177 50.773 93.953 50.773C93.3443 50.773 92.7726 50.7218 92.2377 50.6193C91.7028 50.5169 91.2356 50.3468 90.8319 50.107C90.4282 49.8672 90.1146 49.5475 89.8851 49.1418C89.6556 48.736 89.5408 48.2298 89.5408 47.6212V47.1499C89.5408 46.5412 89.6556 46.033 89.8851 45.6272C90.1146 45.2215 90.4302 44.8977 90.8319 44.66C91.2336 44.4222 91.7028 44.2522 92.2377 44.1517C92.7726 44.0513 93.3443 44.0001 93.953 44.0001C94.5124 44.0001 95.0412 44.0431 95.5371 44.1271C96.033 44.2112 96.4777 44.3546 96.8691 44.5514C97.2605 44.7481 97.5823 45.0165 97.8343 45.3506C98.0864 45.6846 98.2463 46.1006 98.318 46.5966H95.6436C95.4838 46.3814 95.2543 46.2359 94.9571 46.1601C94.66 46.0842 94.3239 46.0453 93.953 46.0453C93.6046 46.0453 93.287 46.0781 93.0001 46.1437C92.7131 46.2092 92.4857 46.3322 92.3156 46.5125C92.1455 46.6929 92.0615 46.9572 92.0615 47.3036V47.4614C92.0615 47.8097 92.1455 48.0761 92.3156 48.2565C92.4857 48.4368 92.7131 48.5598 93.0001 48.6233C93.287 48.6868 93.6046 48.7196 93.953 48.7196C94.2829 48.7196 94.576 48.7094 94.8301 48.6868C95.0842 48.6643 95.3055 48.6131 95.492 48.5331C95.6785 48.4532 95.8363 48.3323 95.9613 48.1725H93.9345V47.0679V47.0699Z" fill="white"/>
<path d="M99.5322 44.1704H107.088V45.8221H102.049V46.648H107.088V48.1419H102.049V48.9678H107.088V50.6257H99.5322V44.1704Z" fill="white"/>
</svg>
