<svg width="25" height="24" viewBox="0 0 25 24" fill="none" xmlns="http://www.w3.org/2000/svg">
<g clip-path="url(#clip0_1001_16045)">
<path d="M22.9976 0H2.99756C1.89299 0 0.997559 0.89543 0.997559 2V22C0.997559 23.1046 1.89299 24 2.99756 24H22.9976C24.1021 24 24.9976 23.1046 24.9976 22V2C24.9976 0.89543 24.1021 0 22.9976 0Z" fill="white"/>
<path d="M5.17529 18.4V17.4926L6.92612 17.2416V6.71973L5.2506 6.50737V5.59998H9.44881L13.1199 15.1951L16.5839 5.59998H20.7821V6.50737L19.2384 6.68112C19.2258 7.47911 19.2133 8.28997 19.2007 9.1137C19.2007 9.92456 19.2007 10.7483 19.2007 11.5849V12.4151C19.2007 13.2388 19.2007 14.0625 19.2007 14.8862C19.2133 15.6971 19.2258 16.508 19.2384 17.3188L20.8198 17.4926V18.4H15.2661V17.4926L16.7534 17.2995C16.7785 16.5015 16.791 15.71 16.791 14.9249C16.791 14.1269 16.791 13.3611 16.791 12.6274L16.8098 8.03256L13.0823 18.4H11.8774L7.9239 8.03256L8.01803 11.8166V17.2416L9.58059 17.4926V18.4H5.17529Z" fill="#0C111D"/>
</g>
<defs>
<clipPath id="clip0_1001_16045">
<rect width="24" height="24" fill="white" transform="translate(0.997559)"/>
</clipPath>
</defs>
</svg>
