<svg width="26" height="24" viewBox="0 0 26 24" fill="none" xmlns="http://www.w3.org/2000/svg">
<path d="M11.8025 17.4468C12.1775 17.4468 12.515 17.7468 12.515 18.1593C12.515 18.5343 12.215 18.8718 11.8025 18.8718C11.4275 18.8718 11.09 18.5718 11.09 18.1593C11.09 17.7468 11.4275 17.4468 11.8025 17.4468ZM22.8275 13.0968C22.4525 13.0968 22.115 12.7968 22.115 12.3843C22.115 12.0093 22.415 11.6718 22.8275 11.6718C23.2025 11.6718 23.54 11.9718 23.54 12.3843C23.54 12.7593 23.2025 13.0968 22.8275 13.0968ZM22.8275 10.2093C21.6275 10.2093 20.6525 11.1843 20.6525 12.3843C20.6525 12.6093 20.69 12.8343 20.765 13.0593L13.6025 16.8843C13.19 16.2843 12.515 15.9468 11.8025 15.9468C10.9775 15.9468 10.2275 16.4343 9.85249 17.1468L3.40249 13.7718C2.72749 13.3968 2.20249 12.3093 2.27749 11.2593C2.31499 10.7343 2.50249 10.3218 2.76499 10.1718C2.95249 10.0593 3.13999 10.0968 3.40249 10.2093L3.43999 10.2468C5.16499 11.1468 10.7525 14.0718 10.9775 14.1843C11.3525 14.3343 11.54 14.4093 12.1775 14.1093L23.7275 8.10932C23.915 8.03432 24.1025 7.88432 24.1025 7.62182C24.1025 7.28432 23.765 7.13432 23.765 7.13432C23.09 6.83432 22.0775 6.34682 21.1025 5.89682C19.0025 4.92182 16.6025 3.79682 15.5525 3.23432C14.6525 2.74682 13.9025 3.15932 13.79 3.23432L13.5275 3.34682C8.76499 5.74682 2.46499 8.85932 2.08999 9.08432C1.45249 9.45932 1.03999 10.2468 1.00249 11.2218C0.927494 12.7593 1.71499 14.3718 2.83999 14.9343L9.66499 18.4593C9.81499 19.5093 10.7525 20.3343 11.8025 20.3343C13.0025 20.3343 13.94 19.3968 13.9775 18.1968L21.4775 14.1468C21.8525 14.4468 22.34 14.5968 22.8275 14.5968C24.0275 14.5968 25.0025 13.6218 25.0025 12.4218C25.0025 11.1843 24.0275 10.2093 22.8275 10.2093Z" fill="white"/>
</svg>
