<svg width="25" height="24" viewBox="0 0 25 24" fill="none" xmlns="http://www.w3.org/2000/svg">
<path d="M4.57756 21.196H18.8366L18.1556 18.991L19.7846 20.389L21.2776 21.727L23.9976 24V2.475C23.9296 1.137 22.7776 0 21.3496 0L4.58256 0.003C3.15556 0.003 1.99756 1.142 1.99756 2.48V18.72C1.99756 20.131 3.15356 21.196 4.57756 21.196ZM15.1256 5.683L15.0926 5.695L15.1046 5.683H15.1256ZM7.49456 6.952C9.32756 5.618 11.0266 5.682 11.0266 5.682L11.1636 5.817C8.92056 6.352 7.90356 7.354 7.90356 7.354C7.90356 7.354 8.17556 7.221 8.65056 7.018C11.6716 5.83 14.9706 5.916 18.0246 7.42C18.0246 7.42 17.0056 6.483 14.9006 5.883L15.0866 5.7C15.3776 5.701 16.9176 5.755 18.5656 6.96C18.5656 6.96 20.4096 10.11 20.4096 13.98C20.3486 13.906 19.2656 15.646 16.4786 15.706C16.4786 15.706 16.0066 15.172 15.6706 14.706C17.3006 14.238 17.9106 13.302 17.9106 13.302C17.3756 13.639 16.8876 13.839 16.4916 14.039C15.8826 14.307 15.2726 14.439 14.6636 14.574C11.7796 15.042 10.1606 14.259 8.63056 13.638L8.10756 13.372C8.10756 13.372 8.71656 14.308 10.2816 14.776C9.87056 15.245 9.46356 15.778 9.46356 15.778C6.67756 15.712 5.66156 13.972 5.66156 13.972C5.66156 10.096 7.49456 6.952 7.49456 6.952Z" fill="white"/>
<path d="M15.3057 12.7709C16.0167 12.7709 16.5957 12.1709 16.5957 11.4309C16.5957 10.6959 16.0197 10.0959 15.3057 10.0959V10.0989C14.5977 10.0989 14.0177 10.6969 14.0157 11.4369C14.0157 12.1709 14.5947 12.7709 15.3057 12.7709Z" fill="white"/>
<path d="M10.6875 12.7709C11.3985 12.7709 11.9775 12.1709 11.9775 11.4309C11.9775 10.6959 11.4025 10.0959 10.6915 10.0959L10.6875 10.0989C9.97646 10.0989 9.39746 10.6969 9.39746 11.4369C9.39746 12.1709 9.97646 12.7709 10.6875 12.7709Z" fill="white"/>
</svg>
