<svg width="25" height="24" viewBox="0 0 25 24" fill="none" xmlns="http://www.w3.org/2000/svg">
<path d="M13.2717 19.206L13.215 17.8437C13.215 17.8437 14.3454 17.6047 15.46 16.6908L3.7439 4.83849L3.94853 3.24956L5.51921 3.04254L17.2353 14.8949C18.1259 13.7803 18.3622 12.6367 18.3622 12.6367L19.7088 12.6941C19.3878 14.5012 17.8481 16.1091 17.8481 16.1091L20.3495 19.1564C20.6337 19.0951 20.9285 19.1737 21.1396 19.3873C21.4811 19.7328 21.4734 20.2934 21.1285 20.6422C20.7837 20.9911 20.2295 20.9989 19.8942 20.6598C19.6769 20.4399 19.6056 20.1352 19.666 19.8604L16.6537 17.3299C16.6475 17.3236 15.0581 18.8813 13.2717 19.206Z" fill="#0C111D"/>
<path d="M5.36149 12.694L6.70811 12.6368C6.70811 12.6368 6.94436 13.7802 7.84778 14.9078L19.5639 3.05545L21.1345 3.26246L21.3392 4.8514L9.62309 16.7037C10.7249 17.6047 11.8552 17.8437 11.8552 17.8437L11.7986 19.206C10.0122 18.8813 8.42279 17.3236 8.42279 17.3236L5.41049 19.8541C5.47115 20.1416 5.39344 20.4399 5.18232 20.6535C4.8408 20.9989 4.28662 20.9911 3.94177 20.6422C3.59694 20.2934 3.58916 19.7327 3.92444 19.3935C4.14177 19.1737 4.44298 19.1015 4.7146 19.1627L7.21603 16.1154C7.22224 16.1091 5.68249 14.5012 5.36149 12.694Z" fill="#0C111D"/>
</svg>
