<svg width="25" height="24" viewBox="0 0 25 24" fill="none" xmlns="http://www.w3.org/2000/svg">
<g clip-path="url(#clip0_1001_16043)">
<path d="M24.9976 4.54511C24.0976 4.93511 23.1676 5.20511 22.1776 5.32511C23.1976 4.72511 23.9776 3.76511 24.3376 2.59511C23.3776 3.16511 22.3276 3.55511 21.2176 3.79511C20.3176 2.83511 19.0276 2.23511 17.6176 2.23511C14.8876 2.23511 12.6976 4.45511 12.6976 7.15511C12.6976 7.54511 12.7276 7.90511 12.8176 8.26511C8.73756 8.08511 5.13756 6.10511 2.70756 3.13511C0.967559 6.25511 2.91756 8.83511 4.20756 9.70511C3.42756 9.70511 2.64756 9.46511 1.98756 9.10511C1.98756 11.5351 3.69756 13.5451 5.91756 13.9951C5.43756 14.1451 4.35756 14.2351 3.69756 14.0851C4.32756 16.0351 6.15756 17.4751 8.28756 17.5051C6.60756 18.8251 4.14756 19.8751 0.997559 19.5451C3.18756 20.9551 5.76756 21.7651 8.55756 21.7651C17.6176 21.7651 22.5376 14.2651 22.5376 7.78511C22.5376 7.57511 22.5376 7.36511 22.5076 7.15511C23.5276 6.40511 24.3676 5.53511 24.9976 4.54511Z" fill="white"/>
</g>
<defs>
<clipPath id="clip0_1001_16043">
<rect width="24" height="24" fill="white" transform="translate(0.997559)"/>
</clipPath>
</defs>
</svg>
